# xmcd CD database file
#
# Track frame offsets:
#	150
#	20791
#	43071
#	54908
#	83423
#	100457
#	133638
#	148823
#	167574
#	188317
#	200269
#	211416
#	230998
#
# Disc length: 3253 seconds
#
# Revision: 0
# Processed by: cddbd v1.5.1PL0 Copyright (c) Steve Scherf et al.
# Submitted via: Feurio! 1.68 - http://www.feurio.com
#
DISCID=b20cb30d
DTITLE=orpheus2 - live [CD 1)
DYEAR=1900
DGENRE=
TTITLE0=Leaving on a jetplane
TTITLE1=Hymn
TTITLE2=Faith
TTITLE3=Purple rain
TTITLE4=Down under
TTITLE5=American Pie
TTITLE6=Nobody knows you
TTITLE7=Fire
TTITLE8=Like a rolling stone
TTITLE9=I can see clearly now
TTITLE10=Have you ever see the rain
TTITLE11=Losing my religion
TTITLE12=Time after time
EXTD=
EXTT0=
EXTT1=
EXTT2=
EXTT3=
EXTT4=
EXTT5=
EXTT6=
EXTT7=
EXTT8=
EXTT9=
EXTT10=
EXTT11=
EXTT12=
PLAYORDER=
